# xmcd CD database file
#
# Track frame offsets:
#	150
#	33837
#	71290
#	104470
#	141692
#	166617
#	201140
#	230390
#	270332
#	282472
#
# Disc length: 4104 seconds
#
# Revision: 1
# Processed by: cddbd v1.4PL0 Copyright (c) Steve Scherf et al.
# Submitted via: CDex 1.50beta8
#
DISCID=8910060a
DTITLE=Jazzorange - Source
DYEAR=1996
DGENRE=Jazz
TTITLE0=Wes
TTITLE1=Croisade
TTITLE2=Juntos
TTITLE3=Salva La Selva
TTITLE4=Deseo
TTITLE5=Source
TTITLE6=Detroit
TTITLE7=Vertigo
TTITLE8=Beatitude
TTITLE9=Pas de Lezard
EXTD=YEAR: 1996
EXTT0=
EXTT1=
EXTT2=
EXTT3=
EXTT4=
EXTT5=
EXTT6=
EXTT7=
EXTT8=
EXTT9=
PLAYORDER=
